{
  "source": "C:\\Users\\Peter\\Desktop\\stuff\\MIUN\\quantitative_research\\video_compression\\videos\\BVI-HD\\BVI-HD_CDVL_videos\\ORIG\\FishAndRock_1920x1080_30fps.mp4",
  "output": "C:\\Users\\Peter\\Desktop\\stuff\\MIUN\\quantitative_research\\video_compression\\compressed_videos\\BVI-HD\\av1\\1\\FishAndRock_1920x1080_30fps_av1.mkv",
  "codec": "av1",
  "ok": "Input #0, mov,mp4,m4a,3gp,3g2,mj2, from 'C:\\Users\\Peter\\Desktop\\stuff\\MIUN\\quantitative_research\\video_compression\\videos\\BVI-HD\\BVI-HD_CDVL_videos\\ORIG\\FishAndRock_1920x1080_30fps.mp4':\n  Metadata:\n    major_brand     : isom\n    minor_version   : 512\n    compatible_brands: isomiso2avc1mp41\n    encoder         : Lavf54.28.101\n  Duration: 00:00:05.00, start: 0.000000, bitrate: 251564 kb/s\n  Stream #0:0[0x1](und): Video: h264 (High 4:4:4 Predictive) (avc1 / 0x31637661), yuv420p(progressive), 1920x1080, 251561 kb/s, 30 fps, 30 tbr, 30 tbn (default)\n    Metadata:\n      handler_name    : VideoHandler\n      vendor_id       : [0][0][0][0]\n[out#0/matroska @ 0000012119068fc0] Codec AVOption b:a (set bitrate (in bits/s)) has not been used for any stream. The most likely reason is either wrong type (e.g. a video option with no video streams) or that it is a private option of some decoder which was not actually used for any stream.\nStream mapping:\n  Stream #0:0 -> #0:0 (h264 (native) -> av1 (libsvtav1))\nPress [q] to stop, [?] for help\nSvt[info]: -------------------------------------------\nSvt[info]: SVT [version]:\tSVT-AV1 Encoder Lib v3.1.0-19-g6ecfe8ec\nSvt[info]: SVT [build]  :\tGCC 15.2.0\t 64 bit\nSvt[info]: LIB Build date: Aug 17 2025 11:37:13\nSvt[info]: -------------------------------------------\nSvt[info]: Level of Parallelism: 5\nSvt[info]: Number of PPCS 93\nSvt[info]: [asm level on system : up to avx2]\nSvt[info]: [asm level selected : up to avx2]\nSvt[info]: -------------------------------------------\nSvt[info]: SVT [config]: main profile\ttier (auto)\tlevel (auto)\nSvt[info]: SVT [config]: width / height / fps numerator / fps denominator \t\t: 1920 / 1080 / 30 / 1\nSvt[info]: SVT [config]: bit-depth / color format \t\t\t\t\t: 8 / YUV420\nSvt[info]: SVT [config]: preset / tune / pred struct \t\t\t\t\t: 4 / PSNR / random access\nSvt[info]: SVT [config]: gop size / mini-gop size / key-frame type \t\t\t: 161 / 16 / key frame\nSvt[info]: SVT [config]: BRC mode / target bitrate (kbps)\t\t\t\t: VBR / 1000 \nSvt[info]: SVT [config]: AQ mode / Variance Boost \t\t\t\t\t: 2 / 0\nSvt[info]: SVT [config]: sharpness / luminance-based QP bias \t\t\t\t: 0 / 0\nSvt[info]: SVT [config]: QP scale compress strength \t\t\t\t\t: 0\nSvt[info]: -------------------------------------------\nOutput #0, matroska, to 'C:\\Users\\Peter\\Desktop\\stuff\\MIUN\\quantitative_research\\video_compression\\compressed_videos\\BVI-HD\\av1\\1\\FishAndRock_1920x1080_30fps_av1.mkv':\n  Metadata:\n    major_brand     : isom\n    minor_version   : 512\n    compatible_brands: isomiso2avc1mp41\n    encoder         : Lavf62.3.100\n  Stream #0:0(und): Video: av1 (AV01 / 0x31305641), yuv420p(tv, progressive), 1920x1080, q=2-31, 1000 kb/s, 30 fps, 1k tbn (default)\n    Metadata:\n      encoder         : Lavc62.11.100 libsvtav1\n      handler_name    : VideoHandler\n      vendor_id       : [0][0][0][0]\n    Side data:\n      cpb: bitrate max/min/avg: 0/0/1000000 buffer size: 1000000 vbv_delay: N/A\nframe=    0 fps=0.0 q=0.0 size=       0KiB time=N/A bitrate=N/A speed=N/A elapsed=0:00:01.04    \nframe=    0 fps=0.0 q=0.0 size=       0KiB time=N/A bitrate=N/A speed=N/A elapsed=0:00:01.61    \nframe=    0 fps=0.0 q=0.0 size=       0KiB time=N/A bitrate=N/A speed=N/A elapsed=0:00:02.22    \nframe=    0 fps=0.0 q=0.0 size=       0KiB time=N/A bitrate=N/A speed=N/A elapsed=0:00:02.78    \nframe=    0 fps=0.0 q=0.0 size=       0KiB time=N/A bitrate=N/A speed=N/A elapsed=0:00:03.30    \nframe=    0 fps=0.0 q=0.0 size=       0KiB time=N/A bitrate=N/A speed=N/A elapsed=0:00:03.89    \nframe=    1 fps=0.2 q=27.0 size=       1KiB time=00:00:00.00 bitrate=N/A speed=   0x elapsed=0:00:04.45    \nframe=    1 fps=0.2 q=27.0 size=       1KiB time=00:00:00.00 bitrate=N/A speed=   0x elapsed=0:00:04.99    \nframe=    1 fps=0.2 q=27.0 size=       1KiB time=00:00:00.00 bitrate=N/A speed=   0x elapsed=0:00:05.51    \nframe=    4 fps=0.7 q=49.0 size=       1KiB time=00:00:00.10 bitrate=  57.0kbits/s speed=0.0165x elapsed=0:00:06.04    \nframe=    8 fps=1.2 q=49.0 size=       1KiB time=00:00:00.23 bitrate=  24.4kbits/s speed=0.0351x elapsed=0:00:06.65    \nframe=   12 fps=1.7 q=49.0 size=       1KiB time=00:00:00.36 bitrate=  15.6kbits/s speed=0.0506x elapsed=0:00:07.23    \nframe=   16 fps=2.1 q=48.0 size=       1KiB time=00:00:00.50 bitrate=  11.4kbits/s speed=0.0643x elapsed=0:00:07.77    \nframe=   20 fps=2.4 q=48.0 size=       1KiB time=00:00:00.63 bitrate=   9.0kbits/s speed=0.0762x elapsed=0:00:08.31    \nframe=   24 fps=2.7 q=48.0 size=       1KiB time=00:00:00.76 bitrate=   7.4kbits/s speed=0.0866x elapsed=0:00:08.85    \nframe=   28 fps=3.0 q=48.0 size=       1KiB time=00:00:00.90 bitrate=   6.3kbits/s speed=0.0957x elapsed=0:00:09.40    \nframe=   32 fps=3.2 q=46.0 size=       1KiB time=00:00:01.03 bitrate=   5.5kbits/s speed=0.104x elapsed=0:00:09.95    \nframe=   36 fps=3.4 q=48.0 size=       1KiB time=00:00:01.16 bitrate=   4.9kbits/s speed=0.111x elapsed=0:00:10.47    \nframe=   40 fps=3.6 q=48.0 size=       1KiB time=00:00:01.30 bitrate=   4.4kbits/s speed=0.118x elapsed=0:00:11.01    \nframe=   44 fps=3.8 q=48.0 size=       1KiB time=00:00:01.43 bitrate=   4.0kbits/s speed=0.124x elapsed=0:00:11.57    \nframe=   49 fps=4.0 q=32.0 size=       1KiB time=00:00:01.60 bitrate=   3.6kbits/s speed=0.131x elapsed=0:00:12.16    \nframe=   53 fps=4.2 q=45.0 size=       1KiB time=00:00:01.73 bitrate=   3.3kbits/s speed=0.136x elapsed=0:00:12.75    \nframe=   57 fps=4.3 q=41.0 size=       1KiB time=00:00:01.86 bitrate=   3.1kbits/s speed=0.14x elapsed=0:00:13.30    \nframe=   65 fps=4.7 q=32.0 size=       1KiB time=00:00:02.13 bitrate=   2.7kbits/s speed=0.154x elapsed=0:00:13.87    \nframe=   73 fps=5.0 q=42.0 size=       1KiB time=00:00:02.40 bitrate=   2.4kbits/s speed=0.166x elapsed=0:00:14.45    \nframe=   77 fps=5.1 q=46.0 size=       1KiB time=00:00:02.53 bitrate=   2.3kbits/s speed=0.169x elapsed=0:00:15.01    \nframe=   81 fps=5.2 q=33.0 size=       1KiB time=00:00:02.66 bitrate=   2.1kbits/s speed=0.171x elapsed=0:00:15.60    \nframe=   85 fps=5.3 q=46.0 size=       1KiB time=00:00:02.80 bitrate=   2.0kbits/s speed=0.173x elapsed=0:00:16.17    \nframe=   89 fps=5.3 q=42.0 size=       1KiB time=00:00:02.93 bitrate=   1.9kbits/s speed=0.175x elapsed=0:00:16.76    \nframe=   91 fps=5.2 q=48.0 size=       1KiB time=00:00:03.00 bitrate=   1.9kbits/s speed=0.172x elapsed=0:00:17.41    \nframe=   93 fps=5.2 q=46.0 size=       1KiB time=00:00:03.06 bitrate=   1.9kbits/s speed=0.17x elapsed=0:00:18.01    \nframe=   97 fps=5.2 q=33.0 size=       1KiB time=00:00:03.20 bitrate=   1.8kbits/s speed=0.172x elapsed=0:00:18.57    \nframe=  101 fps=5.3 q=47.0 size=       1KiB time=00:00:03.33 bitrate=   1.7kbits/s speed=0.175x elapsed=0:00:19.08    \nframe=  105 fps=5.4 q=43.0 size=       1KiB time=00:00:03.46 bitrate=   1.6kbits/s speed=0.177x elapsed=0:00:19.59    \nframe=  111 fps=5.5 q=47.0 size=       1KiB time=00:00:03.60 bitrate=   1.6kbits/s speed=0.179x elapsed=0:00:20.12    \nframe=  117 fps=5.6 q=47.0 size=       1KiB time=00:00:03.86 bitrate=   1.5kbits/s speed=0.187x elapsed=0:00:20.72    \nframe=  121 fps=5.7 q=43.0 size=       1KiB time=00:00:04.00 bitrate=   1.4kbits/s speed=0.188x elapsed=0:00:21.27    \nframe=  129 fps=5.9 q=35.0 size=       1KiB time=00:00:04.26 bitrate=   1.3kbits/s speed=0.195x elapsed=0:00:21.83    \nframe=  137 fps=6.1 q=43.0 size=       1KiB time=00:00:04.53 bitrate=   1.3kbits/s speed=0.203x elapsed=0:00:22.35    \n[out#0/matroska @ 0000012119068fc0] video:596KiB audio:0KiB subtitle:0KiB other streams:0KiB global headers:0KiB muxing overhead: 0.236326%\nframe=  150 fps=6.6 q=50.0 Lsize=     598KiB time=00:00:04.96 bitrate= 985.8kbits/s speed=0.218x elapsed=0:00:22.78    \n",
  "seconds": 23.301498413085938,
  "probe_out": {}
}